<?xml version="1.0" standalone="no"?>
<!DOCTYPE svg PUBLIC "-//W3C//DTD SVG 20010904//EN"
 "http://www.w3.org/TR/2001/REC-SVG-20010904/DTD/svg10.dtd">
<svg version="1.0" xmlns="http://www.w3.org/2000/svg"
 width="800.000000pt" height="800.000000pt" viewBox="0 0 800.000000 800.000000"
 preserveAspectRatio="xMidYMid meet">
<metadata>
Created by potrace 1.14, written by Peter Selinger 2001-2017
</metadata>
<g transform="translate(0.000000,800.000000) scale(0.100000,-0.100000)"
fill="#000000" stroke="none">
<path d="M926 4929 l-26 -31 0 -889 c0 -972 -2 -933 57 -958 21 -9 523 -11
2018 -8 l1990 2 84 23 c352 94 611 349 708 696 26 92 25 387 -1 476 -60 204
-170 374 -325 503 l-45 37 312 0 312 0 0 -839 0 -840 24 -28 c31 -36 95 -39
128 -5 23 23 23 23 28 445 l5 422 260 6 c272 5 283 7 383 58 54 28 153 120
191 180 56 86 74 154 74 271 0 83 -5 118 -22 164 -60 168 -215 305 -376 336
-44 8 -596 10 -2075 8 l-2015 -3 -76 -22 c-181 -51 -319 -130 -440 -252 -129
-130 -218 -286 -261 -457 -31 -126 -31 -322 0 -449 44 -179 161 -372 298 -492
l59 -53 -552 0 -553 0 -2 839 -3 839 -24 26 c-37 39 -100 37 -135 -5z m3249
-231 c-151 -143 -244 -310 -287 -518 -25 -117 -20 -304 10 -415 48 -176 141
-333 271 -458 45 -43 81 -78 81 -80 0 -1 -205 -2 -455 -2 -250 0 -455 2 -455
5 0 3 21 20 46 39 50 38 134 131 183 204 119 176 176 409 152 624 -29 254
-147 479 -333 634 l-59 49 466 0 466 0 -86 -82z m2553 49 c75 -39 124 -87 158
-154 25 -51 29 -69 29 -143 0 -68 -5 -94 -23 -131 -37 -75 -87 -125 -160 -161
l-66 -33 -236 0 -235 0 -3 315 c-1 173 0 321 3 328 4 11 51 13 242 10 238 -3
238 -3 291 -31z m-3772 3 c159 -41 316 -141 414 -263 60 -75 123 -198 147
-287 25 -91 25 -310 0 -400 -72 -259 -268 -457 -537 -542 -64 -20 -96 -23
-215 -23 -131 1 -146 3 -233 33 -211 73 -360 200 -451 386 -55 111 -72 181
-78 316 -4 95 -1 131 16 205 67 283 282 502 561 575 105 27 270 27 376 0z
m2094 -10 c214 -72 372 -207 465 -395 64 -128 79 -195 79 -345 0 -150 -15
-216 -80 -350 -40 -80 -61 -108 -138 -185 -94 -93 -162 -140 -264 -181 -361
-145 -789 12 -966 354 -64 125 -87 221 -87 362 0 215 72 391 226 546 76 77
105 98 185 137 146 72 218 88 380 83 105 -3 149 -9 200 -26z"/>
</g>
</svg>
