<svg version="1.1" id="Layer_1" xmlns="http://www.w3.org/2000/svg" xmlns:xlink="http://www.w3.org/1999/xlink" x="0px" y="0px"
	 viewBox="0 0 776 240.25" style="enable-background:new 0 0 776 240.25;" xml:space="preserve">
<style type="text/css">
	.st0{fill:#FFFFFF;}
</style>
<path class="st0" d="M770.93,39.47c-3.39-7.77-8.03-14.59-13.91-20.49c-5.89-5.88-12.73-10.53-20.49-13.91
	c-7.77-3.38-16.17-4.32-25.19-4.32H646H233.47c-16.54,0-32.09,3.14-46.62,9.4c-14.54,6.27-27.2,14.85-37.97,25.76
	c-10.78,10.9-19.3,23.63-25.57,38.16c-6.27,14.54-9.4,30.08-9.4,46.62c0,16.55,3.13,32.09,9.4,46.62
	c6.26,14.54,14.79,27.2,25.57,37.97c4.24,4.24,8.78,8.12,13.59,11.66H23.31V11.65c0-3.25-1.13-6.01-3.38-8.27
	C17.67,1.13,14.91,0,11.65,0C8.39,0,5.64,1.13,3.38,3.38C1.13,5.64,0,8.4,0,11.65v216.94c0,3.26,1.13,6.02,3.38,8.27
	c2.25,2.26,5.01,3.39,8.27,3.39h221.82h257.16c16.54,0,32.08-3.13,46.62-9.4c14.53-6.26,27.26-14.79,38.16-25.57
	c10.9-10.77,19.49-23.43,25.75-37.97c6.26-14.53,9.4-30.08,9.4-46.62c0-16.54-3.14-32.08-9.4-46.62
	c-6.26-14.53-14.85-27.26-25.75-38.16c-4.69-4.69-9.74-8.92-15.1-12.76h78.08v205.44c0,3.26,1.13,6.02,3.39,8.27
	c2.25,2.26,5.01,3.39,8.27,3.39c3.25,0,6.02-1.13,8.27-3.39c2.25-2.25,3.39-5.01,3.39-8.27V128.58h49.63
	c9.02,0,17.41-1.69,25.19-5.08c7.77-3.38,14.6-7.95,20.49-13.72c5.88-5.76,10.53-12.6,13.91-20.49c3.38-7.89,5.07-16.23,5.07-25
	C776,55.52,774.31,47.25,770.93,39.47z M271.07,209.41c-11.78,5.02-24.31,7.52-37.6,7.52c-13.29,0-25.82-2.5-37.6-7.52
	c-11.78-5.01-21.99-11.84-30.64-20.49c-8.65-8.65-15.48-18.86-20.49-30.64c-5.02-11.77-7.52-24.31-7.52-37.6
	c0-13.28,2.5-25.81,7.52-37.59c5.01-11.78,11.84-22.06,20.49-30.83c8.65-8.77,18.86-15.66,30.64-20.68
	c11.78-5.01,24.31-7.52,37.6-7.52c13.28,0,25.81,2.51,37.6,7.52c11.78,5.02,22.06,11.91,30.83,20.68
	c8.77,8.78,15.66,19.05,20.68,30.83c5.01,11.78,7.52,24.31,7.52,37.59c0,13.29-2.51,25.82-7.52,37.6
	c-5.02,11.78-11.91,21.99-20.68,30.64C293.12,197.57,282.85,204.41,271.07,209.41z M303.99,217.32c5.05-3.65,9.82-7.65,14.26-12.04
	c10.9-10.77,19.48-23.43,25.75-37.97c6.26-14.53,9.4-30.08,9.4-46.62c0-16.54-3.14-32.08-9.4-46.62
	c-6.27-14.53-14.85-27.26-25.75-38.16c-4.69-4.69-9.74-8.92-15.1-12.76h117.87c-5.33,3.83-10.34,8.07-14.97,12.76
	c-10.78,10.9-19.3,23.63-25.57,38.16c-6.27,14.54-9.4,30.08-9.4,46.62c0,16.55,3.13,32.09,9.4,46.62
	c6.26,14.54,14.79,27.2,25.57,37.97c4.39,4.4,9.12,8.4,14.14,12.04H303.99z M579.74,83.09c5.01,11.78,7.52,24.31,7.52,37.59
	c0,13.29-2.51,25.82-7.52,37.6c-5.02,11.78-11.91,21.99-20.68,30.64c-8.77,8.65-19.05,15.48-30.82,20.49
	c-11.79,5.02-24.31,7.52-37.6,7.52c-13.29,0-25.82-2.5-37.6-7.52c-11.78-5.01-21.99-11.84-30.64-20.49
	c-8.65-8.65-15.48-18.86-20.49-30.64c-5.02-11.77-7.52-24.31-7.52-37.6c0-13.28,2.5-25.81,7.52-37.59
	c5.01-11.78,11.84-22.06,20.49-30.83c8.65-8.77,18.86-15.66,30.64-20.68c11.78-5.01,24.31-7.52,37.6-7.52
	c13.29,0,25.81,2.51,37.6,7.52c11.77,5.02,22.05,11.91,30.82,20.68C567.83,61.04,574.72,71.31,579.74,83.09z M749.12,80.27
	c-2.13,4.89-5.07,9.21-8.83,12.97c-3.76,3.76-8.15,6.71-13.16,8.84c-5.02,2.13-10.28,3.2-15.79,3.2h-49.63V23.31h49.63
	c5.51,0,10.77,1.07,15.79,3.2c5.01,2.13,9.4,5.07,13.16,8.83c3.76,3.76,6.7,8.15,8.83,13.16c2.13,5.02,3.2,10.28,3.2,15.79
	C752.31,70.06,751.24,75.38,749.12,80.27z"/>
</svg>